# xmcd
#
# Track frame offsets: 
#        150
#        11850
#        27316
#        41368
#        56992
#        69832
#        108889
#        121180
#        134165
#        149452
#        163061
#        178111
#        189560
#        201818
#        218211
#        230298
#
# Disc length: 3274 seconds
#
# Revision: 1
# Processed by: cddbd v1.5.1PL0 Copyright (c) Steve Scherf et al.
# Submitted via: ExactAudioCopy v0.95a3
#
DISCID=ec0cc810
DTITLE=Woody Allen - More Movie Music
DYEAR=2002
DGENRE=Jazz
TTITLE0=Stardust Memories - Tickle-Toe (L.Young)
TTITLE1=Stardust Memories - Body and Soul (Heyman-Sour)
TTITLE2=Radio Days - Frenesí (A.Dominguez)
TTITLE3=Alice - Moonglow (Hudson-DeLange-Mills)
TTITLE4=Shadows and Fog - Alabama Song (Weill-Brecht)
TTITLE5=Manhattan Murder Mystery - Sing sing sing (L.Prima)
TTITLE6=Bullets Over Broadway - That Jungle Jamboree (Razaf-Brooks II-
TTITLE6=Waller)
TTITLE7=Bullets Over Broadway - At the jazz Band Ball (LaRocca-Shields
TTITLE7=)
TTITLE8=Mighty Aphrodite - Whispering (Schonberger-Coburn-Rose)
TTITLE9=Mighty Aphrodite - Penthouse Serenade(When we´re Alone) (Jason
TTITLE9=Burton)
TTITLE10=Deconstructing Harry - Out of Nowhere (Heyman-Green)
TTITLE11=Deconstructing Harry - She´s Funny that Way (Whiting-Moret)
TTITLE12=Celebrity - Truckin´ (Weir-Garcia-Lesh-Hunter)
TTITLE13=Sweet and Lowdown - Caravan (Tizol-Ellington-Mills)
TTITLE14=The Curse Of The Jade Scorpion - Sophisticated Lady (Ellingto
TTITLE14=n-Parish-Mills)
TTITLE15=The Curse Of The Jade Scorpion - Sunrise Serenade (Carle-Lawr
TTITLE15=ence)
EXTD=YEAR: 2002
EXTT0=
EXTT1=
EXTT2=
EXTT3=
EXTT4=
EXTT5=
EXTT6=
EXTT7=
EXTT8=
EXTT9=
EXTT10=
EXTT11=
EXTT12=
EXTT13=
EXTT14=
EXTT15=
PLAYORDER=
